<?xml version="1.0" encoding="utf-8"?>
<!-- Generator: Adobe Illustrator 28.2.0, SVG Export Plug-In . SVG Version: 6.00 Build 0)  -->
<svg version="1.1" id="Слой_1" xmlns="http://www.w3.org/2000/svg" xmlns:xlink="http://www.w3.org/1999/xlink" x="0px" y="0px"
	 viewBox="0 0 728 728" style="enable-background:new 0 0 728 728;" xml:space="preserve">
<style type="text/css">
	.st0{display:none;fill:#0000FF;stroke:#000000;stroke-miterlimit:10;}
	.st1{fill:#FFFFFF;}
	.st2{display:none;fill:#FFFFFF;}
</style>
<rect class="st0" width="728" height="728"/>
<path class="st1" d="M596.31,728H131.69C58.96,728,0,669.04,0,596.31V131.69C0,58.96,58.96,0,131.69,0h464.62
	C669.04,0,728,58.96,728,131.69v464.62C728,669.04,669.04,728,596.31,728z"/>
<path class="st2" d="M596.31,728H131.69C58.96,728,0,669.04,0,596.31V131.69C0,58.96,58.96,0,131.69,0h464.62
	C669.04,0,728,58.96,728,131.69v464.62C728,669.04,669.04,728,596.31,728z M265.11,260.03L44,292.16l160,155.96l-37.77,220.22
	L364,564.36l197.77,103.97L524,448.12l160-155.96l-221.11-32.13L364,59.66L265.11,260.03z"/>
</svg>
